<svg width="189" height="189" viewBox="0 0 189 189" fill="none" xmlns="http://www.w3.org/2000/svg">
<g clip-path="url(#clip0_502_379)">
<path d="M38.9757 143.603C34.5553 137.612 30.1563 145.669 32.1725 150.326C32.9771 152.185 33.0548 154.425 35.1921 155.052C35.8536 155.246 36.4439 156.041 37.1749 156.041C38.4075 156.041 38.8658 155.743 39.958 155.369" stroke="#4D4D4D" stroke-width="2.05671" stroke-linecap="round" stroke-linejoin="round"/>
<path d="M40.6128 156.378C41.5113 161.106 41.8601 166.281 44.1418 170.498C45.8684 173.689 49.4047 176.774 53.037 177.24C55.3985 177.543 57.3401 178.206 59.7857 177.632C61.6634 177.192 63.383 176.412 65.2065 175.877C66.716 175.434 68.0235 174.353 69.0993 173.187C70.4738 171.698 71.0334 169.752 72.1189 168.219C72.8539 167.182 73.0285 164.857 73.0285 163.587C73.0285 161.889 73.3559 160.357 73.3559 158.656C73.3559 154.987 72.0462 151.437 72.0462 147.805C72.0462 146.743 71.4517 145.727 71.3913 144.611C71.3123 143.151 70.9772 141.218 70.7183 139.755C70.4794 138.406 70.0816 137.005 70.0816 135.609C70.0816 133.309 69.21 135.61 68.117 134.862" stroke="#4D4D4D" stroke-width="2.05671" stroke-linecap="round" stroke-linejoin="round"/>
<path d="M36.0288 138.896C35.2275 135.914 35.7994 132.779 34.5553 129.969C33.8002 128.263 34.6761 125.672 34.9737 123.992C35.1882 122.781 35.0465 121.467 35.0465 120.238C35.0465 119.173 35.857 118.573 36.0106 117.548C36.1588 116.559 35.6057 115.557 34.719 115.102C33.8656 114.663 34.2568 114.944 34.8646 114.355C35.2057 114.024 36.4996 113.441 36.338 112.86C36.2274 112.463 35.7191 112.641 37.0474 112.337C38.1498 112.086 39.5387 110.993 40.6128 110.993C41.7515 110.993 42.4508 110.752 43.6324 110.32C44.9152 109.852 45.5098 111.096 46.361 110.937C47.3678 110.749 48.1157 109.349 49.2715 109.349C49.3963 109.349 49.9149 109.962 50.5085 109.984C51.4144 110.019 52.4723 110.63 53.3826 110.246C53.9889 109.989 53.477 111.145 54.2012 111.31C55.8148 111.678 57.3837 110.029 58.7852 109.499C60.1325 108.989 59.5607 109.541 59.2036 110.32C58.9789 110.811 61.9129 110.812 62.4779 110.918C63.9971 111.202 63.2689 111.108 62.4052 111.833C61.2507 112.803 62.9312 113.01 63.7149 113.01C65.2906 113.01 64.8876 112.895 64.8427 114.093C64.795 115.366 65.0637 115.254 65.825 116.035C66.3361 116.56 66.3826 117.396 66.971 117.866C67.5344 118.316 68.7722 117.379 68.4081 118.594C68.0503 119.788 67.2123 120.794 66.8801 122.012C66.664 122.804 68.379 122.692 68.7719 123.095C69.8149 124.166 68.6923 124.556 68.4626 125.617C68.2857 126.434 68.9079 126.694 69.0811 127.316C69.2838 128.045 68.1205 128.377 68.5172 129.147C68.9492 129.984 69.1016 129.815 68.4445 130.828" stroke="#4D4D4D" stroke-width="2.05671" stroke-linecap="round" stroke-linejoin="round"/>
<path d="M32.7545 115.027C32.0252 115.465 29.485 116.785 31.4448 117.791C32.2642 118.212 31.26 117.648 31.463 119.211C31.7029 121.058 32.2573 120.841 30.9536 122.591C29.9039 124.001 30.9025 124.615 30.2078 126.121C29.8132 126.976 29.5157 128.125 29.4802 129.072C29.4249 130.549 32.6894 131.169 31.8995 132.341C31.5569 132.849 30.5609 133.562 30.608 134.264C30.6835 135.389 32.4983 136.517 33.2093 137.215C33.5585 137.558 34.5664 138.467 33.9915 138.896C33.339 139.383 33.9926 139.335 34.3189 139.905C34.5884 140.375 35.2284 141.249 35.2284 141.249C35.2284 141.249 34.9174 138.837 34.519 137.701C34.164 136.688 33.5723 135.975 32.9 135.198C32.6353 134.892 33.4041 134.547 33.5913 134.32C34.9128 132.717 35.3377 128.437 33.0819 127.279C32.675 127.07 33.214 128.3 33.5731 128.586C34.2457 129.124 34.3483 126.24 34.3189 125.972C34.1403 124.344 33.5746 123.265 32.4634 122.124C31.7041 121.345 31.9565 121.501 32.7727 121.396C33.8107 121.263 35.0385 120.157 33.9005 119.248C33.1031 118.611 34.246 121.601 34.7191 122.087" stroke="#4D4D4D" stroke-width="2.05671" stroke-linecap="round" stroke-linejoin="round"/>
<path d="M38.3209 140.913C38.7916 141.532 39.5551 142.036 39.958 142.669C40.3278 143.249 40.3115 143.992 40.6129 144.611C41.3739 146.174 41.9226 143.564 41.9226 142.856C41.9226 142.245 41.3119 139.743 40.6857 141.511C40.5455 141.907 40.9341 140.792 40.9403 140.502C40.9633 139.443 40.9368 138.381 40.6129 137.365C40.098 135.749 38.8354 133.859 37.666 132.658C37.3727 132.357 38.2439 133.347 38.6483 133.442C39.5541 133.655 39.9426 133.015 39.958 132.172C39.9689 131.583 38.6748 126.753 37.4114 128.213C37.3515 128.282 39.6306 129.268 39.6306 127.298C39.6306 126.48 38.1383 125.417 39.6306 126.439C41.0799 127.431 42.8403 126.469 43.6871 125.131C44.7717 123.418 42.6654 123.148 44.3966 124.926C45.9611 126.532 48.3474 125.502 49.5809 123.954C49.8975 123.557 51.1242 125.141 52.4004 124.907C53.0855 124.781 55.5017 122.957 56.0022 123.6C57.5366 125.569 60.8233 125.194 62.8782 125.112C63.6684 125.081 67.1217 122.657 65.8251 121.825C65.0156 121.306 64.8325 123.721 66.1525 122.684C67.9637 121.262 66.8939 119.379 65.4977 118.314C64.0868 117.238 65.6845 118.032 65.4249 116.633C65.0912 114.834 62.9737 112.318 60.9864 113.57C58.3658 115.221 62.0778 116.919 62.0778 114.877C62.0778 112.165 57.1079 111.055 55.2382 112.076C53.3715 113.095 56.0683 113.228 55.1108 112.823C53.8901 112.307 52.4554 112.099 51.1453 112.02C50.6182 111.988 49.5898 112.214 49.1443 111.833C48.4703 111.256 46.846 110.759 45.9973 110.488C43.0712 109.556 43.4216 112.205 44.5239 114.28C45.5797 116.267 41.1334 115.021 40.3037 114.896C38.0801 114.56 36.7604 117.679 39.1031 117.679C39.973 117.679 39.3036 117.31 38.9212 117.212C37.693 116.897 36.6085 117.394 35.7196 118.277C33.6912 120.29 34.517 124.693 37.9207 123.581C39.0898 123.199 37.6919 122.498 37.1203 122.498C35.371 122.498 33.2285 123.602 32.6454 125.374C31.5663 128.653 39.6859 124.472 40.6129 123.693C41.23 123.175 41.8911 122.639 41.1222 122.012C40.5177 121.519 38.6768 120.368 39.4487 120.368C39.8835 120.368 41.6744 122.04 42.2501 122.274C43.1944 122.657 44.8471 123.131 45.7063 122.274C47.7073 120.278 43.7952 119.351 43.96 119.808C45.1963 123.235 51.2735 121.2 53.1644 119.808C53.8976 119.269 53.9705 118.372 52.9098 118.949C51.7575 119.575 50.811 121.066 51.309 122.423C52.4857 125.629 59.6581 124.015 60.186 120.966C60.3489 120.025 58.6529 119.6 58.0395 119.958C56.4681 120.874 57.8351 122.626 59.0582 122.853C62.2568 123.444 67.8126 119.634 62.86 117.455C61.7869 116.983 59.7878 116.723 59.0218 117.903C58.0842 119.347 60.8967 119.28 61.5503 119.154C67.254 118.056 60.5498 114.828 58.8217 113.85C57.4332 113.065 53.9178 110.745 55.1472 114.28C55.304 114.731 54.3462 113.364 54.1831 113.197C53.2324 112.22 51.8841 111.494 50.5814 111.217C49.0413 110.889 47.1097 110.893 45.9428 112.151C45.1754 112.978 46.1024 113.259 46.8341 113.327C47.0819 113.35 48.5752 113.403 47.9073 112.823C46.9232 111.968 45.44 111.974 44.2328 111.833C43.3482 111.73 41.3455 111.439 41.0313 112.73C40.7053 114.068 41.9398 116.233 42.9777 116.969C44.0912 117.759 43.1426 117.047 42.5047 116.783C41.4982 116.366 39.89 115.829 38.7938 116.11C37.4936 116.444 40.3877 117.602 40.5401 117.642C42.7439 118.219 45.3387 117.825 47.4526 117.044C47.9627 116.855 50.1063 115.827 49.3808 114.952C49.0998 114.613 48.1872 114.04 47.8892 114.691C47.1401 116.325 52.7114 115.558 53.31 115.176C53.9207 114.787 50.8906 113.844 51.309 116.035C51.7613 118.404 55.571 118.452 56.9117 116.969C58.265 115.473 55.6646 115.281 56.4751 116.633C57.3964 118.17 58.1178 116.42 55.7839 115.867C52.2972 115.041 50.0602 116.534 46.725 117.007C44.4464 117.329 44.6405 118.334 43.2324 119.883C41.8513 121.402 40.5131 120.742 38.9939 121.62C37.5097 122.477 38.4814 126.315 38.3027 127.783C38.1312 129.192 35.4059 128.113 34.9374 130.174C34.6586 131.401 35.4859 132.701 36.3745 133.461C36.7844 133.812 38.1887 134.049 38.4118 134.507C38.7129 135.125 37.0499 134.413 36.3927 134.563C35.5211 134.762 35.6931 136.032 35.8833 136.673C36.435 138.535 37.6731 139.948 37.9935 141.922" stroke="#4D4D4D" stroke-width="2.05671" stroke-linecap="round" stroke-linejoin="round"/>
<path d="M38.6481 150.999C37.9792 150.054 37.6214 149.522 37.6658 148.384C37.6946 147.642 38.11 148.056 37.5202 147.45C37.0728 146.991 36.0477 146.925 35.7012 147.637" stroke="#4D4D4D" stroke-width="2.05671" stroke-linecap="round" stroke-linejoin="round"/>
<path d="M47.8164 139.568C48.8628 138.193 50.0673 137.761 51.6728 137.29C52.5396 137.036 54.1674 137.146 54.0376 136.879" stroke="#4D4D4D" stroke-width="2.05671" stroke-linecap="round" stroke-linejoin="round"/>
<path d="M63.8608 136.207C65.1834 135.942 66.6875 135.474 67.79 136.543C68.1815 136.922 70.2276 137.887 69.0997 137.887" stroke="#4D4D4D" stroke-width="2.05671" stroke-linecap="round" stroke-linejoin="round"/>
<path d="M53.3828 143.939C53.3828 143.939 53.3829 143.939 53.3829 143.939" stroke="#4D4D4D" stroke-width="2.05671" stroke-linecap="round" stroke-linejoin="round"/>
<path d="M66.1523 143.603C66.1524 143.603 66.1524 143.603 66.1524 143.603" stroke="#4D4D4D" stroke-width="2.05671" stroke-linecap="round" stroke-linejoin="round"/>
<path d="M60.5861 141.249C60.5861 145.398 63.4776 149.371 64.5335 153.165C64.9829 154.78 64.4015 155.033 62.7144 155.033C61.0718 155.033 60.2327 154.905 59.2764 156.378" stroke="#4D4D4D" stroke-width="2.05671" stroke-linecap="round" stroke-linejoin="round"/>
<path d="M112.464 102.292C110.312 100.737 108.977 100.946 107.015 102.764C105.181 104.462 104.591 107.611 106.239 109.634C108.795 112.773 114.574 111.825 116.471 108.531C117.391 106.933 117.109 108.177 117.716 108.667C119.224 109.887 120 109.978 121.515 108.542C123.337 106.815 124.817 99.8513 120.324 100.771C119.825 100.873 118.221 101.983 118.976 101.829C119.975 101.624 119.954 100.394 119.706 99.6192C119.045 97.5516 116.153 96.5431 114.331 97.3115C112.97 97.8857 112.624 99.5564 111.53 100.188C110.472 100.799 106.277 104.376 109.526 103.989" stroke="#4D4D4D" stroke-width="1.71392" stroke-linecap="round" stroke-linejoin="round"/>
<path d="M86.3423 112.037C84.6814 111.713 82.7247 111.229 82.3051 113.484C81.993 115.161 83.7073 117.269 85.4853 116.988C86.1052 116.89 88.1477 115.937 88.5514 116.341C89.5654 117.355 90.1768 116.185 90.7985 115.198C91.5244 114.045 90.4254 110.335 88.9132 109.999C87.9524 109.786 84.1627 112.49 84.6284 112.722" stroke="#4D4D4D" stroke-width="1.71392" stroke-linecap="round" stroke-linejoin="round"/>
<path d="M113.835 48.3994C115.715 45.9591 119.1 43.4056 122.411 43.5899C123.886 43.6719 124.607 46.9921 125.079 48.0559C126.753 51.8289 118.32 52.3204 120.01 56.129C120.331 56.8519 121.293 57.1252 121.916 57.5223C123.238 58.3652 123.44 57.9677 123.44 56.6444C123.44 55.6201 121.22 52.9562 122.411 52.2547C125.643 50.351 124.946 45.3075 120.867 45.3075C117.733 45.3075 113.149 45.8839 113.149 49.9453C113.149 51.9694 114.861 51.3737 115.703 50.2889C116.72 48.9792 117.443 47.3688 119.324 47.3688C120.644 47.3688 123.231 46.8583 123.44 48.7429C123.476 49.0626 124.165 50.5797 124.05 50.7278C123.573 51.342 123.096 52.2679 122.754 53.0372C122.182 54.3268 120.353 54.1566 120.353 55.7855C120.353 56.8734 120.412 57.0614 121.039 57.8467C121.247 58.1066 122.458 58.8004 122.068 58.0185" stroke="#CD4631" stroke-width="2.05671" stroke-linecap="round" stroke-linejoin="round"/>
<path d="M124.47 62.828C124.541 65.6865 125.939 63.9362 124.889 63.0953C124.194 62.5385 124 64.0627 124.813 64.4698C125.727 64.9272 125.515 62.621 125.232 62.9044C124.497 63.6414 126.059 65.6312 124.47 65.2334" stroke="#CD4631" stroke-width="2.05671" stroke-linecap="round" stroke-linejoin="round"/>
<path d="M106.397 18.2822C101.93 12.5731 94.1405 14.3395 89.3346 18.7956C84.655 23.1347 81.779 34.0157 86.0941 39.4193C87.2944 40.9223 88.3514 42.592 89.7667 43.8983C90.2716 44.3643 88.4702 44.3815 87.7909 44.4824C85.6885 44.7945 84.6532 47.0672 85.2275 49.0235C85.5288 50.0498 86.3708 50.755 87.3868 50.9849C88.0877 51.1434 88.2412 51.3911 87.4353 51.4717C85.5456 51.6608 84.2009 51.7621 82.9054 53.3474C80.9929 55.6876 81.8567 57.7086 84.1229 59.2311C86.4137 60.7701 85.9906 61.4487 83.8582 62.7344C82.1685 63.7533 81.5342 65.8207 80.9492 67.679C79.9373 70.8932 78.4961 75.7379 81.3428 78.3161C84.9069 81.544 90.2425 81.6689 94.6754 80.845C96.1483 80.5712 97.9016 80.4459 99.0524 79.3709C99.3631 79.0807 100.207 78.0403 99.3218 77.8513C97.7445 77.5145 97.1723 80.3426 97.0902 81.3233C96.5083 88.2734 106.885 90.6462 111.89 89.7811C115.142 89.2191 117.986 87.649 120.54 85.6141C122.55 84.0128 125.378 82.2365 126.71 79.957C127.353 78.857 127.118 80.1403 127.494 81.1428C128.396 83.5415 130.998 83.082 132.959 82.4924C135.61 81.6956 137.985 79.9917 139.585 77.7202C139.82 77.3873 141.005 75.1865 141.204 75.4862C143.637 79.1533 145.093 73.9937 147.173 72.7465C147.521 72.5377 148.173 74.9088 148.374 75.2954C149.893 78.2175 151.477 80.8429 154.904 81.701C162.239 83.5381 169.919 80.4282 174.994 75.1425C177.131 72.9163 178.31 69.8388 175.605 67.3725C174.95 66.7759 177.014 67.4668 177.4 67.4387C179.52 67.2843 182.592 67.0174 184.136 65.3597C185.896 63.4704 186.844 61.795 186.148 59.1529C185.661 57.3049 184.592 56.2071 182.84 55.5154C182.069 55.211 180.517 55.1545 181.646 54.4408C182.778 53.7246 183.304 51.919 183.407 50.6472C183.568 48.6399 182.19 47.2727 180.408 46.5925C179.604 46.2858 177.133 46.6041 177.547 46.5627C178.922 46.4251 179.678 41.0328 179.576 40.0029C179.12 35.4259 174.536 31.8595 169.887 32.1575C169.116 32.2068 168.327 32.6648 168.911 31.8688C169.581 30.9549 169.615 29.3164 169.884 28.2594C171.397 22.3065 168.953 17.2774 164.307 13.4701C160.484 10.3364 154.595 8.61299 149.994 10.7759C149.697 10.9156 147.765 13.1588 148.349 13.1004C149.24 13.0112 148.955 10.8712 148.834 10.4003C148.267 8.19358 145.67 6.36435 143.776 5.39263C140.985 3.96092 136.947 4.45453 134.014 5.2633C131.43 5.97604 129.482 7.66206 128.149 9.92422C127.442 11.123 128.041 12.1245 127.166 11.322C125.747 10.0207 125.225 9.16806 123.006 9.35011C120.392 9.56464 118.006 10.2495 115.93 11.8846C114.866 12.7218 113.915 14.5389 114.054 15.9355C114.056 15.9568 113.762 14.6126 113.554 14.089C112.436 11.2683 108.697 11.3641 106.712 13.3514C105.876 14.1885 105.398 15.4623 105.304 16.6356C105.254 17.2493 104.911 19.2025 104.741 17.4997" stroke="#4D4D4D" stroke-width="1.71392" stroke-linecap="round" stroke-linejoin="round"/>
<path d="M133.329 28.4756C132.825 25.5936 136.006 25.2751 138.284 24.6967C140.092 24.2376 141.814 23.8557 143.544 24.8494C144.669 25.4959 146.251 27.1527 146.345 28.4756C146.696 33.3979 142.389 36.377 137.655 36.377C135.672 36.377 135.747 39.9463 135.73 41.1866C135.702 43.1901 135.231 45.1273 135.463 47.1413C135.527 47.6954 135.856 50.7519 136.759 49.7178C138.256 48.005 138.474 44.362 138.474 42.2172C138.474 40.175 137.904 38.3936 140.018 37.5794C141.888 36.8592 144.161 36.0319 145.411 34.3158C147.209 31.8494 147.561 28.4175 145.659 25.9182C144.052 23.8062 139.557 23.7116 137.102 23.6661C133.883 23.6064 132.405 25.4603 130.775 28.1321C129.799 29.7313 130.291 32.4233 132.642 31.8347C135.155 31.2056 136.903 29.7437 138.665 27.9794C139.607 27.0354 142.224 27.6814 143.277 28.2084C144.53 28.8358 143.783 31.0015 143.429 31.911C142.016 35.5501 137.318 35.4288 136.149 38.7055C135.266 41.1808 135.387 43.7324 135.387 46.3206C135.387 47.1199 134.868 49.7008 136.416 49.0117C139.368 47.6976 137.985 42.1099 138.131 39.4689C138.215 37.9556 140.213 37.7393 141.219 37.2359C142.435 36.6268 144.12 34.8418 144.725 33.6287C145.547 31.9825 145.698 29.4727 144.478 27.9794C142.957 26.1182 140.373 27.2582 138.817 26.0709C137.466 25.0396 134.625 28.5512 133.672 29.5062C133.297 29.8817 132.877 30.2112 132.471 30.5369C132.286 30.6847 131.748 31.7583 131.613 31.7583C131.19 31.7583 132.111 31.0551 132.452 30.8041C133.601 29.9578 134.68 28.9919 135.52 27.8267C136.456 26.5293 137.972 27.1015 139.503 27.1015C140.383 27.1015 142.37 26.7195 143.105 27.2923C144.22 28.1604 144.626 28.9414 142.934 29.5062" stroke="#CD4631" stroke-width="2.05671" stroke-linecap="round" stroke-linejoin="round"/>
<path d="M137.102 55.2719C132.098 56.3994 139.328 58.45 138.398 55.5391C138.083 54.5513 136.671 54.9075 137.121 55.9591C137.319 56.4223 139.124 57.2068 137.445 56.6464" stroke="#CD4631" stroke-width="2.05671" stroke-linecap="round" stroke-linejoin="round"/>
<path d="M157.774 66.1447C160.128 66.1447 163.18 65.5953 165.469 66.2637C166.806 66.6541 167.514 67.5034 168.473 68.4043C169.61 69.4713 170.969 70.8946 170.801 72.5785C170.596 74.633 167.949 75.6434 166.3 76.1938C163.947 76.9795 160.816 76.8351 158.367 76.4674C156.437 76.1774 153.022 75.5686 152.264 73.3753C151.648 71.5931 152.977 70.6399 154.496 70.212C156.846 69.55 159.306 69.0309 161.716 68.6659C162.884 68.4891 165.538 67.7075 166.704 68.4994C167.192 68.8314 167.684 70.2812 167.796 70.8422C167.976 71.7438 167.498 72.2441 166.74 72.6618C165.077 73.5772 163.054 74.001 161.229 73.3159C158.81 72.4073 161.891 70.3168 163.236 70.2238C164.822 70.1143 165.428 70.7475 165.991 72.2337C166.389 73.284 166.377 73.9427 165.053 74.0532C163.477 74.1847 161.837 74.0483 160.339 73.5418C158.006 72.7533 154.979 71.3749 153.38 69.4033C152.635 68.4848 152.644 67.2561 152.644 66.1447C152.644 64.3016 152.659 64.4509 154.757 64.4322C158.386 64.3999 162.006 64.2182 165.635 64.2182C166.772 64.2182 167.825 64.1022 168.841 64.6939C169.541 65.1012 169.568 65.2758 169.53 66.0734C169.394 68.9443 166.214 69.6779 163.973 70.426" stroke="#4D4D4D" stroke-width="1.02835" stroke-linecap="round"/>
<path d="M94.2886 39.8148C93.9555 38.1053 92.885 36.5368 92.246 34.8914C91.6902 33.46 91.5098 31.602 91.5098 30.063C91.5098 27.1203 91.9229 23.9417 94.5498 22.0476C96.5622 20.5966 100.26 19.8934 102.245 21.8811C104.175 23.8137 103.882 26.8572 104.442 29.3257C105.025 31.8951 103.736 35.8926 100.915 36.6871C99.9959 36.946 97.6446 37.5286 96.9605 36.5801C95.9684 35.2044 95.6409 33.1392 95.1911 31.5377C94.708 29.8175 93.0024 25.6984 95.773 24.8661C99.2141 23.8322 100.652 29.523 100.867 31.8469C100.994 33.2096 101.099 34.4113 100.179 35.486C99.7954 35.9339 98.1227 37.1774 97.6018 36.366C96.879 35.24 96.3517 29.8366 97.9224 29.7538C98.2928 29.7343 99.3646 29.5928 99.585 29.9679C99.982 30.6439 99.4988 31.7136 98.8724 31.9896C97.641 32.5322 97.2812 32.4541 97.2812 31.1453C97.2812 29.9533 97.7969 29.051 99.1574 29.6349C99.8276 29.9225 99.9048 31.239 100.012 31.8231C100.352 33.664 100.274 35.5496 100.274 37.4126C100.274 40.2894 98.1242 41.8667 96.2124 43.882" stroke="#4D4D4D" stroke-width="1.02835" stroke-linecap="round"/>
<path d="M95.5696 75.5635C93.0414 75.5635 90.82 75.7707 88.7298 74.2315C87.3007 73.1791 86.8062 72.1763 86.8062 70.3784C86.8062 69.1018 86.9505 68.0747 87.8749 67.0961C88.7338 66.1867 89.5171 66.1622 90.7248 65.8831C91.1702 65.7801 94.323 64.9123 94.6671 65.7166C95.1705 66.8929 94.5021 68.8998 93.8597 69.9027C93.1473 71.0148 92.5182 72.1089 91.2948 72.7331C91.0228 72.8719 88.9801 73.6538 88.9436 72.9947C88.8751 71.7604 89.0527 70.8398 89.7986 69.8314C90.2468 69.2253 91.9393 69.537 92.5772 69.5697C94.8891 69.6885 93.8573 75.4439 91.3423 72.8282C90.8022 72.2666 90.7167 71.1451 91.1048 70.4973C92.5186 68.1374 95.032 67.1172 97.4933 66.3588" stroke="#4D4D4D" stroke-width="1.02835" stroke-linecap="round"/>
<path d="M171.881 45.1665C173.013 44.4752 174.019 43.6029 174.019 42.1696C174.019 41.2528 174.247 40.3422 173.473 39.7079C172.904 39.242 168.541 37.5033 168.462 39.1727C168.406 40.3327 168.462 41.5078 168.462 42.6691C168.462 43.9327 169.803 43.6836 170.765 43.668C172.551 43.6392 172.77 42.3001 172.083 40.6949C171.714 39.8313 170.464 39.2239 169.981 40.5522C169.73 41.2454 173.189 40.6711 170.813 40.6711" stroke="#4D4D4D" stroke-width="1.02835" stroke-linecap="round"/>
<path d="M178.49 61.4972C178.961 61.4972 180.288 61.3352 180.447 62.0505C180.588 62.6836 180.358 63.0538 179.901 63.4098C178.899 64.1905 176.265 63.811 176.853 62.0983C177.271 60.8798 178.505 60.0702 179.785 60.0218C180.094 60.0102 180.476 59.9144 180.638 60.2062C180.795 60.4889 180.712 61.048 180.577 61.3196C180.187 62.1008 179.456 62.7715 178.64 62.877C177.496 63.0247 174.807 63.552 174.807 61.8661" stroke="#4D4D4D" stroke-width="1.02835" stroke-linecap="round"/>
</g>
<defs>
<clipPath id="clip0_502_379">
<rect width="188.531" height="188.531" fill="white" transform="translate(0 0.296021)"/>
</clipPath>
</defs>
</svg>
