<svg width="189" height="189" viewBox="0 0 189 189" fill="none" xmlns="http://www.w3.org/2000/svg">
<path d="M117.505 100.293C117.162 97.8252 117.006 95.5209 116.501 93.1142C115.785 89.7044 113.347 86.6388 111.658 83.6306C108.355 77.7465 104.89 71.0974 98.6251 67.987C92.6956 65.0433 87.758 66.1997 81.8429 68.2972C78.2141 69.584 75.7524 76.7174 74.7016 79.9966C72.9808 85.3662 71.9613 89.8405 72.9162 95.5294C73.6459 99.8763 75.1455 106.425 78.1383 109.866C79.5432 111.481 80.3339 112.803 82.133 114.031C83.3342 114.851 84.7097 115.648 85.7706 116.646C87.7459 118.504 90.7636 118.812 92.8004 120.834C94.5926 122.613 97.1828 123.264 97.7993 126.019C98.1911 127.769 99.0939 131.274 101.437 131.403C107.248 131.724 114.484 129.449 119.089 126.019C121.111 124.513 121.344 121.194 119.714 119.216C117.782 116.871 117.727 112.025 117.505 109.157C117.313 106.681 116.002 103.985 117.193 101.49C119.09 97.5128 119.544 92.9019 118.911 88.5053C118 82.1734 118.878 76.6488 114.492 71.3772C112.811 69.3559 110.762 67.4516 108.891 65.5939C106.551 63.2704 104.276 60.8666 100.723 60.8078C95.3496 60.7189 88.7933 60.7402 84.6548 64.7076C82.8795 66.4095 80.3705 68.4311 79.5443 70.8011C78.0508 75.0849 78.6567 79.2142 79.1426 83.6527C80.069 92.1152 80.0048 102.501 86.574 109.024C88.4065 110.843 89.4006 108.022 89.6984 106.675C90.1882 104.459 89.327 102.04 89.0735 99.8502C88.7237 96.8284 87.9227 94.0159 86.9757 91.12C86.4583 89.5377 84.0982 78.9484 80.7717 81.3704C76.826 84.2434 77.733 94.9694 78.8078 98.6537C79.9441 102.549 82.9715 109.978 88.4263 108.58C93.5331 107.272 95.1409 101.222 92.1532 97.3021C90.7474 95.4576 85.6625 90.9292 85.0565 95.8175C84.4411 100.782 88.4273 106.824 91.9747 109.843C94.2394 111.771 98.9856 113.381 100.143 109.245C100.823 106.812 96.3574 103.107 94.1171 103.573C88.8486 104.668 94.9273 114.941 96.1702 116.934C97.6431 119.296 106.312 124.405 104.561 118.241C104.088 116.575 99.9117 111.818 97.844 113.101C94.1714 115.38 102.025 123.502 103.981 124.357C106.908 125.636 106.74 122.56 105.454 120.945C104.333 119.538 101.889 117.731 102.865 121.055C103.536 123.338 105.687 128.742 108.891 128.124C112.278 127.47 110.401 119.397 109.694 117.577C109.103 116.053 107.877 112.93 106.257 112.126C104.823 111.414 105.963 114.924 106.101 115.272C106.973 117.471 109.216 122.85 112.194 122.85C115.822 122.85 112.579 114.489 112.104 113.344C111.59 112.104 111.073 109.934 109.694 109.312C108.556 108.798 109.56 112.921 109.694 113.344C110.035 114.42 112.381 124.151 115.095 122.939C118.402 121.461 116.267 114.776 115.675 112.37C115.069 109.908 114.253 107.518 113.577 105.08C113.198 103.711 113.06 104.123 113.399 105.301C113.573 105.907 114.282 107.211 115.095 106.808C116.541 106.09 116.363 102.973 116.501 101.689C117.034 96.7098 116.573 91.4087 116.211 86.4225C115.969 83.0894 115.664 80.5123 113.912 77.7587C111.306 73.6623 110.833 69.7138 106.347 66.8791C103.009 64.77 99.0935 62.032 95.2106 64.2201C90.1873 67.0509 86.4305 73.3018 84.2531 78.4456C83.3951 80.4726 82.5182 87.0053 86.4625 83.83C89.1314 81.6813 90.8305 78.9373 92.2202 75.8531C93.6535 72.6721 95.5279 69.254 95.166 65.6604C94.4541 58.5919 86.9839 70.1799 86.2616 71.7539C84.8849 74.7541 79.7525 86.8334 84.9672 88.6826C86.8672 89.3563 88.9159 87.2487 90.0554 85.9793C92.9044 82.8057 95.2144 78.6455 95.7239 74.3685C96.0158 71.9184 95.5826 68.4571 93.0905 67.145C89.83 65.4282 86.2068 71.7203 85.1011 73.7924C82.8357 78.038 81.3896 82.6348 81.0172 87.4417C80.8028 90.2084 80.4417 94.5419 83.3604 96.172C85.6773 97.466 88.6687 94.0605 89.9215 92.5824C93.0802 88.8558 95.0747 84.6256 96.7505 80.0853C98.0009 76.6972 98.5945 72.6839 97.6208 69.1392C96.7776 66.0693 93.5279 70.5852 92.9789 71.4436C89.5498 76.8061 88.0519 83.5402 87.065 89.7462C86.5406 93.0436 85.5154 98.3653 87.8015 101.246C92.9949 107.791 100.068 90.0209 100.767 87.5304C101.957 83.2925 102.59 78.5809 102.017 74.1912C101.466 69.9665 98.7907 75.6723 98.268 77.0496C96.5334 81.6203 95.9516 86.8155 95.59 91.6518C95.3347 95.0661 94.679 99.8873 95.9917 103.218C97.2014 106.288 99.7356 104.666 101.035 102.731C103.844 98.5476 104.592 93.4477 105.052 88.5496C105.441 84.4069 105.423 80.0047 104.829 75.8752C104.141 71.0949 102.409 80.9529 102.285 81.725C101.293 87.9091 100.659 94.2523 100.634 100.515C100.62 103.807 99.4999 112.87 103.222 114.962C105.31 116.136 107.158 113.24 108.02 111.749C110.812 106.922 110.817 100.325 110.431 94.9533C110.157 91.1452 109.682 87.358 109.092 83.5862C108.832 81.9294 108.686 79.9825 107.864 78.4677C106.73 76.3758 106.316 86.0986 106.324 86.644C106.353 88.4889 107.992 112.406 110.989 110.974C112.572 110.217 112.736 105.794 112.863 104.437C113.465 98.0345 112.426 91.3209 111.279 85.0265C111.193 84.5589 109.974 79.7793 109.962 79.8194C108.957 83.2563 109.471 87.6045 109.471 91.12C109.471 95.1676 109.264 99.3027 110.274 103.263C110.684 104.868 111.571 106.746 112.372 104.238C114.871 96.414 112.604 86.7508 110.475 78.9995C109.912 76.9494 109.827 78.4333 109.962 79.5978C110.318 82.6609 110.754 86.0701 111.881 88.9485C112.07 89.4304 113.445 92.4695 114.448 91.2529C115.416 90.0781 114.377 86.7069 114.046 85.4918C112.872 81.1872 110.648 77.1985 108.288 73.4379C107.015 71.4088 105.548 68.9717 103.066 68.2529C96.7454 66.4225 97.4206 85.3114 97.5092 87.8406C97.6555 92.0171 98.1656 96.1352 99.4061 100.138C99.595 100.748 100.805 104.576 101.816 102.819C103.299 100.244 100.806 95.2783 99.6516 93.0256C98.5981 90.9704 94.8922 83.7095 92.0193 83.8078C88.9614 83.9125 88.9907 89.7838 89.0735 91.6518C89.3084 96.9481 90.5127 102.176 92.912 106.941C94.0742 109.249 96.1134 111.794 98.7813 112.392C99.8801 112.638 102.331 112.327 101.95 110.663C101.57 109.001 99.3444 108.082 98.0895 107.251C95.5908 105.597 93.2327 103.818 90.5464 102.465C85.9673 100.159 90.3682 107.87 91.2382 109.533C92.6456 112.225 94.5565 115.628 97.5762 116.801C98.8526 117.297 99.2046 116.407 98.1564 115.627C96.1186 114.109 94.0989 112.571 92.0193 111.107C91.1925 110.524 88.221 107.395 87.065 107.65C87.0008 107.664 92.2522 114.494 93.2021 115.228C96.4438 117.731 86.618 110.348 83.2265 108.049C80.5843 106.257 82.0558 107.174 83.5836 108.669C85.0063 110.061 86.3104 111.545 87.6899 112.968C88.8325 114.146 90.3843 113.513 92.0193 114.098C94.3386 114.927 96.7484 117.681 99.4285 115.76C102.016 113.904 101.782 113.311 103.044 116.712C104.561 120.8 105.309 125.13 106.257 129.365C106.581 130.808 107.057 129.068 107.284 128.478C107.889 126.909 108.635 125.12 108.668 123.426C108.727 120.367 106.224 119.475 104.271 122.03C103.693 122.787 101.274 127.967 104.249 126.617C105.74 125.94 106.312 124.973 106.659 123.382C107.715 118.549 107.701 113.259 107.284 108.359C107.174 107.065 107.018 100.765 105.03 100.271C102.712 99.696 101.581 108.837 101.437 110.176C101.045 113.822 100.332 117.52 101.035 121.166C101.668 124.445 103.206 123.322 104.16 120.767C105.672 116.718 105.79 111.925 105.61 107.672C105.485 104.719 105.129 101.862 104.45 98.9861C104.23 98.0558 104.017 95.8147 103.021 95.197C101.328 94.1459 101.074 101.226 101.035 101.867C100.912 103.883 100.292 109.903 100.656 107.916C102.074 100.174 99.4964 90.8081 95.3222 84.251C90.1786 76.1713 84.6102 89.8661 84.6102 94.4437C84.6102 95.2378 84.6997 98.0344 86.1723 97.3242C88.7787 96.0673 88.4288 91.2435 88.404 88.9928C88.3789 86.7102 87.9528 80.0184 85.3689 78.7115C82.2497 77.1337 82.1838 88.2503 82.1553 89.1257" stroke="#FFD700" stroke-width="4.81531" stroke-linecap="round" stroke-linejoin="round"/>
<path d="M103.446 137.785C105.569 137.373 107.782 136.828 109.895 136.566C111.779 136.332 114.369 134.121 116.055 133.22C117.604 132.392 119.542 132.212 121.031 131.226C121.617 130.838 123.626 128.112 123.531 129.808C123.472 130.853 121.962 132.647 121.5 133.641C120.675 135.417 118.801 137.149 117.282 138.383C115.636 139.72 114.014 140.825 112.105 141.773C110.289 142.675 107.984 143.19 106.436 144.565C105.339 145.54 107.185 145.576 108.088 145.739C109.799 146.048 111.539 145.721 112.93 144.764C114.585 143.627 116.888 142.494 118.8 141.862C120.505 141.297 121.604 140.226 123.129 139.469C123.726 139.172 125.888 138.704 124.535 139.779C123.887 140.294 123.888 141.683 123.531 142.393C123.079 143.29 122.039 144.146 121.277 144.786C119.61 146.187 117.798 147.803 115.899 148.864C115.087 149.317 118.593 149.672 118.71 149.75" stroke="#4D4D4D" stroke-width="4.81531" stroke-linecap="round" stroke-linejoin="round"/>
<path d="M101.035 127.814C101.035 123.723 101.437 119.749 101.437 115.671C101.437 110.63 99.8676 105.657 98.5357 100.825C97.1536 95.8107 95.4133 90.8121 92.1978 86.6439C90.288 84.1683 88.2883 79.9522 84.6547 79.9522C82.5019 79.9522 82.1553 81.8916 82.1553 83.5418C82.1553 86.6683 83.9057 89.3822 86.4847 91.1198C89.3296 93.0366 92.9722 93.4843 96.1255 94.7094C98.7486 95.7286 101.417 96.9487 103.356 94.3106C107.175 89.114 108.106 82.9232 107.864 76.6728C107.84 76.0571 106.892 73.9597 106.168 74.6786C104.764 76.0731 103.89 78.6596 103.847 80.6169C103.655 89.3682 104.835 98.8762 108.355 106.941C109.143 108.747 109.942 110.553 110.899 112.281C111.64 113.618 111.883 115.199 112.774 116.424C113.28 117.12 117.07 121.521 115.496 119.438" stroke="#4D4D4D" stroke-width="4.81531" stroke-linecap="round" stroke-linejoin="round"/>
<path d="M67.6943 133.796C69.9848 131.522 71.8978 129.04 73.8091 126.44C75.0404 124.764 74.601 125.253 74.1215 123.825" stroke="#FFD700" stroke-width="4.81531" stroke-linecap="round" stroke-linejoin="round"/>
<path d="M49.2158 101.091C51.3833 100.344 54.2554 99.2944 56.134 97.9887C56.4109 97.7963 55.7218 99.6518 55.2413 98.6978" stroke="#FFD700" stroke-width="4.81531" stroke-linecap="round" stroke-linejoin="round"/>
<path d="M43.1904 63.5995C45.9546 65.4478 48.6638 67.1891 52.1171 67.1891C52.8842 67.1891 55.3979 67.1009 54.8397 65.9926" stroke="#FFD700" stroke-width="4.81531" stroke-linecap="round" stroke-linejoin="round"/>
<path d="M73.7197 42.062C74.3034 44.7666 75.3352 46.7926 76.911 49.0418C77.1807 49.4267 79.1189 51.4992 78.1384 50.0389" stroke="#FFD700" stroke-width="4.81531" stroke-linecap="round" stroke-linejoin="round"/>
<path d="M109.873 46.4492C111.633 45.2721 113.618 44.0044 115.095 42.4608C115.521 42.0155 117.103 39.9065 117.103 40.0677" stroke="#FFD700" stroke-width="4.81531" stroke-linecap="round" stroke-linejoin="round"/>
<path d="M133.975 65.9926C138 64.6876 146.026 62.0042 146.026 62.0042" stroke="#FFD700" stroke-width="4.81531" stroke-linecap="round" stroke-linejoin="round"/>
<path d="M134.376 98.6979C136.778 101.012 139.067 100.687 142.009 101.8C143.308 102.291 143.797 101.845 142.009 101.49" stroke="#FFD700" stroke-width="4.81531" stroke-linecap="round" stroke-linejoin="round"/>
</svg>
