<svg width="101" height="105" viewBox="0 0 101 105" fill="none" xmlns="http://www.w3.org/2000/svg">
<path d="M35.9738 3.32288C36.9031 -0.504344 42.464 -0.126814 42.8674 3.79089L45.3324 27.728C45.6056 30.3813 48.6242 31.7695 50.8164 30.25L75.6569 13.0326C78.7698 10.875 82.6181 14.5031 80.6474 17.7377L68.6127 37.4904C67.3776 39.5177 68.4723 42.1607 70.7793 42.7208L98.1487 49.3661C101.514 50.1832 101.783 54.8653 98.5331 56.0621L70.2653 66.4735C68.092 67.274 67.2785 69.9247 68.6286 71.8065L79.209 86.5538C81.4353 89.6569 77.7983 93.578 74.5368 91.5909L55.3729 79.915C53.3456 78.6798 50.7026 79.7746 50.1425 82.0815L45.3873 101.666C44.4648 105.466 38.9561 105.132 38.4993 101.249L35.103 72.3806C34.7791 69.6271 31.5381 68.3216 29.396 70.0817L10.8623 85.3105C7.7398 87.8762 3.47109 83.9936 5.73011 80.6425L23.0128 55.0051C24.63 52.6061 22.8089 49.3913 19.9198 49.5451L4.20723 50.3811C0.0227966 50.6037 -0.955278 44.6256 3.08193 43.5031L16.4729 39.78C18.9377 39.0947 19.862 36.0854 18.2068 34.1346L6.35832 20.1703C3.78319 17.1354 7.45617 12.8378 10.8552 14.9087L26.1881 24.2506C28.2154 25.4857 30.8585 24.391 31.4186 22.084L35.9738 3.32288Z" fill="black"/>
</svg>
