<svg width="29" height="23" viewBox="0 0 29 23" fill="none" xmlns="http://www.w3.org/2000/svg">
<path d="M9.56493 10.946C10.6613 11.4283 11.5164 12.1519 12.1304 13.1167C12.7443 14.0815 13.0513 15.2217 13.0513 16.5373C13.0513 18.423 12.4593 19.9579 11.2752 21.1419C10.0912 22.2821 8.57823 22.8522 6.73638 22.8522C4.89453 22.8522 3.35965 22.2602 2.13175 21.0761C0.947707 19.8921 0.355684 18.3791 0.355684 16.5373C0.355684 15.6602 0.465318 14.7831 0.684586 13.9061C0.903854 13.029 1.38624 11.7134 2.13175 9.95925L5.94701 0.486876H12.4593L9.56493 10.946ZM25.0891 10.946C26.1854 11.4283 27.0406 12.1519 27.6545 13.1167C28.2685 14.0815 28.5755 15.2217 28.5755 16.5373C28.5755 18.423 27.9834 19.9579 26.7994 21.1419C25.6153 22.2821 24.1024 22.8522 22.2605 22.8522C20.4187 22.8522 18.8838 22.2602 17.6559 21.0761C16.4719 19.8921 15.8798 18.3791 15.8798 16.5373C15.8798 15.6602 15.9895 14.7831 16.2087 13.9061C16.428 13.029 16.9104 11.7134 17.6559 9.95925L21.4712 0.486876H27.9834L25.0891 10.946Z" fill="#CD4631"/>
</svg>
