<svg width="224" height="407" viewBox="0 0 224 407" fill="none" xmlns="http://www.w3.org/2000/svg">
<path d="M-71.953 58.544C-71.953 90.4272 -59.623 144.189 -106.183 202.306C-151.661 259.072 -89.0957 79.319 -26.2607 68.1932C47.1894 55.1879 -79.394 356.321 -85.921 295.037C-89.5726 260.75 16.6716 80.7896 46.5566 110.675C84.5741 148.692 -15.1147 365.843 -38.3924 362.272C-79.4573 355.972 67.4129 106.188 109.087 127.701C158.78 153.354 76.8716 324.544 38.8646 333.726C8.45909 341.072 121.863 175.169 197.75 213.138" stroke="black" stroke-width="5.48455" stroke-linecap="round"/>
<path d="M202.888 199.797C203.629 198.471 205.657 199.155 205.442 200.659L205.047 203.43C204.919 204.333 205.69 205.107 206.593 204.982L217.367 203.488C218.82 203.286 219.532 205.201 218.299 205.998L210.294 211.174C209.365 211.774 209.493 213.171 210.515 213.593L215.965 215.843C217.218 216.36 217.041 218.187 215.712 218.454L212.145 219.171C211.339 219.333 210.856 220.162 211.112 220.943L212.124 224.024C212.511 225.201 211.262 226.247 210.171 225.659L205.822 223.314C204.706 222.712 203.441 223.817 203.888 225.004L206.28 231.356C206.799 232.734 205.077 233.85 204.031 232.813L197.269 226.106C196.833 225.674 196.163 225.584 195.629 225.886L188.006 230.199C186.735 230.917 185.371 229.418 186.206 228.221L190.696 221.786C191.106 221.197 190.993 220.391 190.437 219.938L182.609 213.566C181.609 212.752 182.185 211.132 183.475 211.132H189.505C190.187 211.132 190.765 210.631 190.862 209.956L191.808 203.4C192.012 201.983 193.98 201.789 194.458 203.139L195.989 207.475C196.382 208.588 197.904 208.717 198.479 207.687L202.888 199.797Z" fill="#CD4631"/>
</svg>
